<?xml version="1.0" encoding="UTF-8" standalone="no"?>
<!-- Created with Inkscape (http://www.inkscape.org/) -->

<svg
   width="100.00114mm"
   height="33.903969mm"
   viewBox="0 0 100.00114 33.903969"
   version="1.1"
   id="svg1"
   inkscape:version="1.3 (0e150ed6c4, 2023-07-21)"
   sodipodi:docname="LO.svg"
   xmlns:inkscape="http://www.inkscape.org/namespaces/inkscape"
   xmlns:sodipodi="http://sodipodi.sourceforge.net/DTD/sodipodi-0.dtd"
   xmlns:xlink="http://www.w3.org/1999/xlink"
   xmlns="http://www.w3.org/2000/svg"
   xmlns:svg="http://www.w3.org/2000/svg">
  <sodipodi:namedview
     id="namedview1"
     pagecolor="#ffffff"
     bordercolor="#666666"
     borderopacity="1.0"
     inkscape:showpageshadow="2"
     inkscape:pageopacity="0.0"
     inkscape:pagecheckerboard="true"
     inkscape:deskcolor="#d1d1d1"
     inkscape:document-units="mm"
     showguides="true"
     showgrid="true"
     inkscape:zoom="0.65926209"
     inkscape:cx="-15.168474"
     inkscape:cy="-270.75726"
     inkscape:window-width="1929"
     inkscape:window-height="1240"
     inkscape:window-x="629"
     inkscape:window-y="49"
     inkscape:window-maximized="0"
     inkscape:current-layer="layer1">
    <inkscape:grid
       id="grid2"
       units="px"
       originx="-113"
       originy="-266"
       spacingx="0.13229167"
       spacingy="0.13229167"
       empcolor="#3f3fff"
       empopacity="0.25098039"
       color="#3f3fff"
       opacity="0.1254902"
       empspacing="5"
       dotted="false"
       gridanglex="30"
       gridanglez="30"
       visible="true" />
    <sodipodi:guide
       position="0.11197241,295.29185"
       orientation="0,-1"
       id="guide7"
       inkscape:locked="false" />
    <sodipodi:guide
       position="50.270829,309.17084"
       orientation="1,0"
       id="guide8"
       inkscape:locked="false" />
    <sodipodi:guide
       position="-10.054165,283.37396"
       orientation="0,-1"
       id="guide9"
       inkscape:locked="false" />
    <sodipodi:guide
       position="85.195843,308.50938"
       orientation="1,0"
       id="guide44"
       inkscape:locked="false" />
    <sodipodi:guide
       position="64.69063,301.8948"
       orientation="1,0"
       id="guide48"
       inkscape:locked="false" />
    <sodipodi:guide
       position="88.083343,20.768534"
       orientation="1,0"
       id="guide49"
       inkscape:locked="false" />
    <sodipodi:guide
       position="16.404169,293.29584"
       orientation="1,0"
       id="guide50"
       inkscape:locked="false" />
    <sodipodi:guide
       position="-0.79374859,274.77501"
       orientation="0,-1"
       id="guide51"
       inkscape:locked="false" />
    <sodipodi:guide
       position="-21.960416,282.71251"
       orientation="0,-1"
       id="guide52"
       inkscape:locked="false" />
    <sodipodi:guide
       position="5.1593774,309.17084"
       orientation="1,0"
       id="guide53"
       inkscape:locked="false" />
  </sodipodi:namedview>
  <defs
     id="defs1" />
  <g
     inkscape:label="Layer 1"
     inkscape:groupmode="layer"
     id="layer1"
     transform="translate(-29.897917,-70.379166)">
    <g
       id="g1">
      <ellipse
         style="fill:none;stroke:#010000;stroke-width:0.4;stroke-linecap:round;stroke-linejoin:round;stroke-dasharray:none"
         id="path49-6-0-6"
         cx="48.456654"
         cy="94.026459"
         rx="3.840229"
         ry="3.8402271" />
      <path
         id="rect2"
         style="fill:none;stroke:#000000;stroke-width:0.877323;stroke-linecap:round;stroke-linejoin:round"
         d="m 30.953714,70.817827 h 97.889556 c 0.34189,0 0.61713,0.27516 0.61713,0.61712 v 29.859343 c 0,0.34189 -0.27523,0.61712 -0.61713,0.61712 H 30.953714 c -0.34189,0 -0.617136,-0.27516 -0.617136,-0.61712 V 71.434947 c 0,-0.34189 0.275232,-0.61712 0.617136,-0.61712 z" />
      <path
         id="path6"
         style="stroke-width:0.617348;stroke-linecap:round;stroke-linejoin:round"
         d="m 31.721474,72.068547 h 47.880654 c 0.02076,0 0.03745,0.0344 0.03745,0.075 v 8.21015 c 0,0.0416 -0.0167,0.075 -0.03745,0.075 H 31.721474 c -0.02076,0 -0.03748,-0.0344 -0.03748,-0.075 v -8.21015 c 0,-0.0416 0.01666,-0.075 0.03748,-0.075 z" />
      <path
         style="fill:none;stroke:#000000;stroke-width:0.4;stroke-linecap:butt;stroke-linejoin:miter;stroke-dasharray:none;stroke-opacity:1"
         d="m 31.646024,81.665857 c 47.993554,0 47.993554,0 47.993554,0"
         id="path3" />
      <path
         style="fill:none;stroke:#000000;stroke-width:0.4;stroke-linecap:butt;stroke-linejoin:miter;stroke-dasharray:none;stroke-opacity:1"
         d="m 80.138074,81.665576 c 47.993556,0 47.993556,0 47.993556,0"
         id="path3-5" />
      <path
         id="path2361"
         style="fill:none;stroke:#000000;stroke-width:0.451237;stroke-linejoin:round"
         d="m 38.410375,97.315009 a 1.820072,1.820072 0 0 1 -1.82008,1.82006 1.820072,1.820072 0 0 1 -1.82007,-1.82006 1.820072,1.820072 0 0 1 1.82007,-1.82007 1.820072,1.820072 0 0 1 1.82008,1.82007 z" />
      <path
         id="path2361-4"
         style="fill:#1a1a1a;stroke-width:0.282498;stroke-linejoin:round"
         d="m 37.729765,97.315009 a 1.1394632,1.1394632 0 0 1 -1.13947,1.13948 1.1394632,1.1394632 0 0 1 -1.13946,-1.13948 1.1394632,1.1394632 0 0 1 1.13946,-1.13945 1.1394632,1.1394632 0 0 1 1.13947,1.13945 z" />
      <path
         style="fill:#1a1a1a;fill-opacity:1;stroke:#000000;stroke-width:0.343954;stroke-linecap:butt;stroke-linejoin:miter;stroke-dasharray:none;stroke-opacity:1"
         d="m 33.959318,102.46095 c 0.204756,0.28307 0.614281,0.84894 0.848504,1.16978 0.234232,0.32091 0.293324,0.39686 0.369189,0.43483 0.07588,0.0378 0.168504,0.0378 1.221127,0.0378 1.052643,0 3.065221,0 4.126939,0 1.06172,0 1.190806,0 1.260605,-0.031 0.06979,-0.031 0.127332,-0.11213 0.4221,-0.54476 0.294769,-0.43276 0.53242,-0.78414 0.913807,-1.34805 0,0 0,0 -1.561204,0 -1.561207,0 -4.683494,0 -6.244667,0 -1.561176,0 -1.561156,-2.5e-4 -1.3564,0.28273 z"
         id="path2366"
         sodipodi:nodetypes="cccsscccccc" />
      <path
         style="fill:#1a1a1a;fill-opacity:1;stroke:#000000;stroke-width:0.343954;stroke-linecap:butt;stroke-linejoin:miter;stroke-dasharray:none;stroke-opacity:1"
         d="m 115.46146,102.46662 c 0.20476,0.28307 0.61428,0.84895 0.8485,1.16979 0.23424,0.32091 0.29333,0.39685 0.36919,0.43482 0.0759,0.0378 0.16851,0.0378 1.22113,0.0378 1.05264,0 3.06522,0 4.12694,0 1.06172,0 1.19081,0 1.2606,-0.031 0.0698,-0.0309 0.12734,-0.11213 0.4221,-0.54475 0.29477,-0.43276 0.53242,-0.78415 0.91381,-1.34806 0,0 0,0 -1.5612,0 -1.56121,0 -4.6835,0 -6.24467,0 -1.56118,0 -1.56116,-2.4e-4 -1.3564,0.28273 z"
         id="path2366-3"
         sodipodi:nodetypes="cccsscccccc" />
      <path
         style="fill:none;stroke:#000000;stroke-width:0.4;stroke-linecap:butt;stroke-linejoin:miter;stroke-dasharray:none;stroke-opacity:1"
         d="M 31.846321,81.684517 V 100.79845"
         id="path4" />
      <path
         style="fill:none;stroke:#000000;stroke-width:0.4;stroke-linecap:butt;stroke-linejoin:miter;stroke-dasharray:none;stroke-opacity:1"
         d="M 80.338074,81.465576 V 100.57951"
         id="path4-0" />
      <use
         x="0"
         y="0"
         xlink:href="#path6"
         id="use7"
         transform="translate(48.484754,0.00463889)" />
      <rect
         style="fill:none;stroke:#010000;stroke-width:0.3;stroke-linecap:round;stroke-linejoin:round;stroke-dasharray:none"
         id="use34"
         width="4.8061457"
         height="1.9666854"
         x="83.644043"
         y="84.480957"
         ry="0.26627666"
         inkscape:tile-x0="83.252821"
         inkscape:tile-y0="83.909552"
         inkscape:tile-cx="85.990398"
         inkscape:tile-cy="84.985446"
         inkscape:tile-w="5.4751544"
         inkscape:tile-h="2.1517894" />
      <use
         x="0"
         y="0"
         inkscape:tiled-clone-of="#use34"
         xlink:href="#use34"
         id="use40" />
      <use
         x="0"
         y="0"
         inkscape:tiled-clone-of="#use34"
         xlink:href="#use34"
         transform="translate(5.7489121)"
         id="use41" />
      <use
         x="0"
         y="0"
         inkscape:tiled-clone-of="#use34"
         xlink:href="#use34"
         transform="translate(11.497824)"
         id="use42" />
      <use
         x="0"
         y="0"
         inkscape:tiled-clone-of="#use34"
         xlink:href="#use34"
         transform="translate(17.246736)"
         id="use43" />
      <use
         x="0"
         y="0"
         xlink:href="#use34"
         id="use44"
         transform="translate(31.693287)"
         inkscape:tile-cx="117.7404"
         inkscape:tile-cy="85.006244"
         inkscape:tile-w="5.4751544"
         inkscape:tile-h="2.1517894"
         inkscape:tile-x0="115.00283"
         inkscape:tile-y0="83.93035"
         style="stroke-width:1.00000003;stroke-dasharray:none" />
      <use
         x="0"
         y="0"
         inkscape:tiled-clone-of="#use44"
         xlink:href="#use44"
         id="use47" />
      <use
         x="0"
         y="0"
         inkscape:tiled-clone-of="#use44"
         xlink:href="#use44"
         transform="translate(0,3.133302)"
         id="use48" />
      <ellipse
         style="fill:none;stroke:#010000;stroke-width:0.4;stroke-linecap:round;stroke-linejoin:round;stroke-dasharray:none"
         id="path49-6-0"
         cx="94.775558"
         cy="93.771172"
         rx="3.840229"
         ry="3.8402271" />
      <ellipse
         style="fill:none;stroke:#010000;stroke-width:0.4;stroke-linecap:round;stroke-linejoin:round;stroke-dasharray:none"
         id="path49-6-3"
         cx="59.296413"
         cy="87.979561"
         rx="1.6813786"
         ry="1.6813768" />
      <g
         id="g51"
         transform="matrix(1.2359431,0,0,1,-20.242286,0.89398629)">
        <path
           style="fill:none;stroke:#000000;stroke-width:1.16934891;stroke-linecap:butt;stroke-linejoin:miter;stroke-dasharray:none;stroke-opacity:1"
           d="m 72.119399,84.985448 h 3.948316"
           id="path5-2-3"
           sodipodi:nodetypes="cc" />
        <path
           style="fill:none;stroke:#000000;stroke-width:0.5;stroke-linecap:butt;stroke-linejoin:miter;stroke-dasharray:none;stroke-opacity:1"
           d="m 75.157819,85.752004 v 0.4375"
           id="path54-5"
           transform="matrix(0.80909874,0,0,1,15.056608,-0.18188203)" />
      </g>
      <use
         x="0"
         y="0"
         xlink:href="#g51"
         id="use51"
         transform="translate(-6.1798935)" />
      <use
         x="0"
         y="0"
         xlink:href="#g51"
         id="use52"
         transform="matrix(1.1457704,0,0,1,-42.463678,0.01641602)"
         inkscape:label="use52" />
      <path
         style="fill:none;stroke:#000000;stroke-width:1.3;stroke-linecap:butt;stroke-linejoin:miter;stroke-dasharray:none;stroke-opacity:1"
         d="m 64.403132,88.644809 h 9.260419"
         id="path53"
         sodipodi:nodetypes="cc" />
      <path
         style="fill:none;stroke:#000000;stroke-width:0.5;stroke-linecap:butt;stroke-linejoin:miter;stroke-dasharray:none;stroke-opacity:1"
         d="m 73.413551,89.294809 v 0.4375"
         id="path54" />
      <path
         id="path2361-4-3"
         style="fill:#000000;stroke-width:0.32798;stroke-linejoin:round"
         d="m 76.085374,97.313492 a 1.3229172,1.3229172 0 0 1 -1.322919,1.322902 1.3229172,1.3229172 0 0 1 -1.322915,-1.322902 1.3229172,1.3229172 0 0 1 1.322915,-1.322901 1.3229172,1.3229172 0 0 1 1.322919,1.322901 z" />
      <path
         style="fill:none;stroke:#000000;stroke-width:0.284964px;stroke-linecap:butt;stroke-linejoin:miter;stroke-opacity:1"
         d="m 74.762457,95.28856 v 3.836458 0"
         id="path59" />
      <path
         id="path2361-4-3-5"
         style="fill:#000000;stroke-width:0.32798;stroke-linejoin:round"
         d="m 66.122926,97.379638 a 1.3229172,1.3229172 0 0 1 -1.322919,1.322902 1.3229172,1.3229172 0 0 1 -1.322915,-1.322902 1.3229172,1.3229172 0 0 1 1.322915,-1.322901 1.3229172,1.3229172 0 0 1 1.322919,1.322901 z" />
      <path
         style="fill:none;stroke:#000000;stroke-width:0.284964px;stroke-linecap:butt;stroke-linejoin:miter;stroke-opacity:1"
         d="m 64.800009,95.354706 v 3.836458 0"
         id="path59-1" />
      <path
         id="path2361-4-3-6"
         style="fill:#000000;stroke-width:0.32798;stroke-linejoin:round"
         d="M 60.511,97.379638 A 1.3229172,1.3229172 0 0 1 59.188081,98.70254 1.3229172,1.3229172 0 0 1 57.865166,97.379638 1.3229172,1.3229172 0 0 1 59.188081,96.056737 1.3229172,1.3229172 0 0 1 60.511,97.379638 Z" />
      <path
         style="fill:#000000;stroke:#000000;stroke-width:0.284964px;stroke-linecap:butt;stroke-linejoin:miter;stroke-opacity:1"
         d="m 59.188083,95.354706 v 3.836458 0"
         id="path59-0" />
      <rect
         style="fill:none;stroke:#010000;stroke-width:0.2;stroke-linecap:round;stroke-linejoin:round;stroke-dasharray:none"
         id="rect59"
         width="3.0585792"
         height="1.3229196"
         x="116.21111"
         y="93.949562"
         ry="0.26627666" />
      <rect
         style="fill:none;stroke:#010000;stroke-width:0.2;stroke-linecap:round;stroke-linejoin:round;stroke-dasharray:none"
         id="rect59-5"
         width="3.0585792"
         height="1.3229196"
         x="116.2103"
         y="95.646873"
         ry="0.26627666" />
      <path
         style="fill:none;stroke:#000000;stroke-width:1.16;stroke-linecap:butt;stroke-linejoin:miter;stroke-dasharray:none;stroke-opacity:1"
         d="m 36.340703,88.711482 h 2.778125"
         id="path1" />
    </g>
  </g>
</svg>
